# xmcd CD database file generated by Grip 2.94
# 
# Track frame offsets:
#       150
#       18202
#       31735
#       48873
#       64530
#       79799
#       99104
#       110596
#       131156
#       148133
#       163472
#       180530
# 
# Disc length: 2650 seconds
# 
# Revision: 3
# Processed by: cddbd v1.4b41PL1 Copyright (c) Steve Scherf et al.
# Submitted via: Grip 2.94
# 
DISCID=980a580c
DTITLE=Eric Noden - 55 Highway
DYEAR=1900
DGENRE=
TTITLE0=55 Highway
TTITLE1=Georgia Crawl
TTITLE2=Louis Collins
TTITLE3=Willie Mae
TTITLE4=I Heard the Angels Singing
TTITLE5=Maggie Campbell Blues
TTITLE6=Red Line Special
TTITLE7=Michigan Water Blues
TTITLE8=King Porter Stomp
TTITLE9=Bad Luck Blues
TTITLE10=She Wants To Boogie
TTITLE11=Little Green Slippers
EXTD=
EXTT0=
EXTT1=
EXTT2=
EXTT3=
EXTT4=
EXTT5=
EXTT6=
EXTT7=
EXTT8=
EXTT9=
EXTT10=
EXTT11=
PLAYORDER=
